<?xml version="1.0" encoding="UTF-8" standalone="no"?>
<!DOCTYPE svg PUBLIC "-//W3C//DTD SVG 1.1//EN" "http://www.w3.org/Graphics/SVG/1.1/DTD/svg11.dtd">
<svg version="1.1" xmlns="http://www.w3.org/2000/svg" xmlns:xlink="http://www.w3.org/1999/xlink" preserveAspectRatio="xMidYMid meet" viewBox="53.210011599699364 -1.00006970111383 535.579837398374 644.0001394022278" width="531.58" height="640"><defs><path d="M270.03 34.98L270.03 463.24C189.08 382.46 144.1 337.58 135.1 328.61C128.52 322.01 119.59 318.4 110.23 318.4C100.86 318.4 92 322.01 85.4 328.61C83.3 330.7 66.54 347.46 64.44 349.55C57.85 356.14 54.21 364.92 54.21 374.28C54.21 383.65 57.83 392.43 64.41 399.02C87.49 422.09 272.1 606.72 295.17 629.8C301.79 636.41 310.6 640.03 319.97 640C329.39 640.03 338.2 636.41 344.81 629.8C367.88 606.72 552.51 422.09 575.59 399.02C582.17 392.43 585.79 383.65 585.79 374.28C585.79 364.92 582.16 356.14 575.59 349.55C573.49 347.46 556.72 330.7 554.63 328.61C548.05 322.01 539.27 318.4 529.9 318.4C520.54 318.4 512.22 322.01 505.64 328.61C496.59 337.68 451.37 383.07 369.96 464.75C369.96 207.2 369.96 64.11 369.96 35.5C369.96 16.21 353.33 0 334.06 0C331.09 0 307.38 0 304.41 0C285.14 0 269.81 16.69 269.81 35.98C269.84 35.84 269.91 35.51 270.03 34.98Z" id="eA1Q4qwRs"></path></defs><g><g><use xlink:href="#eA1Q4qwRs" opacity="1" fill="#000000" fill-opacity="1"></use><g><use xlink:href="#eA1Q4qwRs" opacity="1" fill-opacity="0" stroke="#000000" stroke-width="1" stroke-opacity="0"></use></g></g></g></svg>